<svg height="512pt" viewBox="0 -1 512 512" width="512pt" xmlns="http://www.w3.org/2000/svg"><path d="m346 200h45v45c0 8.285156 6.714844 15 15 15s15-6.714844 15-15v-120c0-8.285156-6.714844-15-15-15s-15 6.714844-15 15v45h-30v-45c0-8.285156-6.714844-15-15-15s-15 6.714844-15 15v60c0 8.285156 6.714844 15 15 15zm0 0"/><path d="m106 200h45v45c0 8.285156 6.714844 15 15 15s15-6.714844 15-15v-120c0-8.285156-6.714844-15-15-15s-15 6.714844-15 15v45h-30v-45c0-8.285156-6.714844-15-15-15s-15 6.714844-15 15v60c0 8.285156 6.714844 15 15 15zm0 0"/><path d="m246 260h20c19.300781 0 35-15.699219 35-35v-80c0-19.300781-15.699219-35-35-35h-20c-19.300781 0-35 15.699219-35 35v80c0 19.300781 15.699219 35 35 35zm-5-115c0-2.757812 2.242188-5 5-5h20c2.757812 0 5 2.242188 5 5v80c0 2.757812-2.242188 5-5 5h-20c-2.757812 0-5-2.242188-5-5zm0 0"/><path d="m457 0h-402c-30.328125 0-55 24.671875-55 55v280c0 30.328125 24.671875 55 55 55h130.1875l-10 30h-9.1875c-24.8125 0-45 20.1875-45 45v30c0 8.285156 6.714844 15 15 15h240c8.285156 0 15-6.714844 15-15v-30c0-24.8125-20.1875-45-45-45h-9.1875l-10-30h130.1875c30.328125 0 55-24.671875 55-55v-280c0-30.328125-24.671875-55-55-55zm-402 30h402c13.785156 0 25 11.214844 25 25v245h-452v-245c0-13.785156 11.214844-25 25-25zm306 435v15h-210v-15c0-8.269531 6.730469-15 15-15h180c8.269531 0 15 6.730469 15 15zm-55.8125-45h-98.375l10-30h78.375zm176.8125-85c0 13.785156-11.214844 25-25 25h-402c-13.785156 0-25-11.214844-25-25v-5h452zm0 0"/></svg>